<svg xmlns="http://www.w3.org/2000/svg" viewBox="0 0 24 24" aria-hidden="true">
  <path fill="currentColor" d="M19.14 12.94c.04-.31.06-.63.06-.94s-.02-.63-.06-.94l2.03-1.58a1 1 0 0 0 .24-1.27l-1.92-3.32a1 1 0 0 0-1.2-.44l-2.39.96a7.6 7.6 0 0 0-1.63-.94l-.36-2.54A1 1 0 0 0 11.92 1h-3.84a1 1 0 0 0-.99.84l-.36 2.54c-.58.23-1.12.54-1.63.94l-2.39-.96a1 1 0 0 0-1.2.44L.59 8.12a1 1 0 0 0 .24 1.27l2.03 1.58c-.04.31-.06.63-.06.94s.02.63.06.94L.83 14.52a1 1 0 0 0-.24 1.27l1.92 3.32a1 1 0 0 0 1.2.44l2.39-.96c.51.4 1.05.71 1.63.94l.36 2.54a1 1 0 0 0 .99.84h3.84a1 1 0 0 0 .99-.84l.36-2.54c.58-.23 1.12-.54 1.63-.94l2.39.96a1 1 0 0 0 1.2-.44l1.92-3.32a1 1 0 0 0-.24-1.27l-2.03-1.58zM10 15a3 3 0 1 1 0-6 3 3 0 0 1 0 6z"/>
</svg>
